# xmcd
#
# Track frame offsets: 
#        150
#        24649
#        39986
#
# Disc length: 670 seconds
#
# Revision: 1
# Processed by: cddbd v1.5.2PL0 Copyright (c) Steve Scherf et al.
# Submitted via: ExactAudioCopyFreeDBPlugin 1.0
#
DISCID=1a029c03
DTITLE=Hardcore Superstar - Someone Special [CD-S)
DYEAR=1999
DGENRE=Metal*
TTITLE0=Someone Special
TTITLE1=So Deep inside
TTITLE2=Send Myself to Hell
EXTD=
EXTT0=
EXTT1=
EXTT2=
PLAYORDER=
